<svg id="Layer_1" data-name="Layer 1" xmlns="http://www.w3.org/2000/svg" viewBox="0 0 500 500"><defs><style>.cls-1,.cls-2{fill:#3451a4;}.cls-2{opacity:0.31;}</style></defs><path class="cls-1" d="M320.76,363.1,205,410.78c-1.78.74-3.68-1.59-2.78-3.39l29.88-59.6a6.15,6.15,0,0,1,6.49-3.41l80.56,11.36C322.83,356.25,324,361.75,320.76,363.1Z"/><path class="cls-1" d="M275.66,128.83V236.47c0,.3,0,.6,0,.9s-.09.62-.15.91a15.32,15.32,0,0,1-1.34,3.7L193.38,402.61c-.36.71-1.41.29-1.41-.56V181.78c0-13.22,6.85-24.36,17.73-28.83l63.51-26.09A1.94,1.94,0,0,1,275.66,128.83Z"/><path class="cls-1" d="M343.62,104.1,288.25,214.26c-.58,1.15-2.31.46-2.31-.93V124.69a4.18,4.18,0,0,1,2.46-4l51.49-21.16C342.28,98.55,344.84,101.68,343.62,104.1Z"/><path class="cls-1" d="M354.64,115.72V318.13c0,17.88-13.38,30.48-29.91,28.16l-81.68-11.48a2.74,2.74,0,0,1-2-3.77l34.33-68.29,10.09-20.07L350.2,113.94C351.31,111.71,354.64,113,354.64,115.72Z"/><path class="cls-1" d="M134.7,108.8c0,.28,0,.56,0,.85v-.85Z"/><path class="cls-1" d="M135,146.18c2.6,12.29,19.94,20.52,38.73,18.36a51.24,51.24,0,0,0,5.27-.89,2.15,2.15,0,0,1,2.63,2.1V420.4a1.27,1.27,0,0,1-.69,1.19,26,26,0,0,1-3.21,1.36,29.52,29.52,0,0,1-4,.89c-11,1.27-21.55-1-28.89-5.64-5.17-3.25-8.76-7.64-9.84-12.72a14.69,14.69,0,0,1-.31-2.53"/><polygon class="cls-1" points="312.32 92.73 312.32 93.19 311.48 93.07 312.32 92.73"/><path class="cls-2" d="M312.32,66.16V319.37L135.05,392.68v-248c0-4.23,2.17-7.83,5.8-10.43a18.15,18.15,0,0,1,2.85-1.61l4-1.87L309.39,64.2A2.12,2.12,0,0,1,312.32,66.16Z"/></svg>