<svg id="Layer_1" data-name="Layer 1" xmlns="http://www.w3.org/2000/svg" viewBox="0 0 500 500"><defs><style>.cls-1,.cls-2{fill:#3451a4;}.cls-2{opacity:0.31;}</style></defs><path class="cls-1" d="M335.06,377.33,206,430.5c-2,.82-4.1-1.78-3.1-3.79l33.31-66.45a6.84,6.84,0,0,1,7.24-3.79l89.82,12.66C337.37,369.7,338.69,375.83,335.06,377.33Z"/><path class="cls-1" d="M284.78,116.13v120a8.37,8.37,0,0,1,0,1,10.12,10.12,0,0,1-.17,1,16.46,16.46,0,0,1-1.49,4.13l-90,179.1c-.4.79-1.58.32-1.58-.63V175.18c0-14.74,7.65-27.17,19.78-32.15l70.81-29.1A2.17,2.17,0,0,1,284.78,116.13Z"/><path class="cls-1" d="M360.55,88.56,298.81,211.38c-.65,1.29-2.57.52-2.57-1V111.52a4.67,4.67,0,0,1,2.74-4.46l57.41-23.59C359.06,82.37,361.91,85.86,360.55,88.56Z"/><path class="cls-1" d="M372.84,101.52V327.19c0,19.94-14.92,34-33.35,31.4l-91.08-12.8a3.05,3.05,0,0,1-2.2-4.21l38.26-76.13,11.25-22.38L367.88,99.53C369.13,97.05,372.84,98.53,372.84,101.52Z"/><path class="cls-1" d="M127.61,93.81c0,.31,0,.62,0,.93V93.8Z"/><path class="cls-1" d="M127.94,135.47c2.9,13.72,22.23,22.89,43.18,20.48a56.56,56.56,0,0,0,5.87-1,2.4,2.4,0,0,1,2.94,2.34V441.22a1.42,1.42,0,0,1-.77,1.33,32.25,32.25,0,0,1-3.58,1.51,34.53,34.53,0,0,1-4.46,1c-12.29,1.41-24-1.16-32.21-6.3-5.77-3.62-9.77-8.51-11-14.17a16.33,16.33,0,0,1-.35-2.83"/><polygon class="cls-1" points="325.65 75.88 325.65 76.4 324.72 76.27 325.65 75.88"/><path class="cls-2" d="M325.65,46.26V328.58L128,410.31V133.82c0-4.71,2.41-8.72,6.47-11.62a19,19,0,0,1,3.17-1.79l4.49-2.09L322.39,44.07A2.36,2.36,0,0,1,325.65,46.26Z"/></svg>